<svg id="Layer_1" data-name="Layer 1" xmlns="http://www.w3.org/2000/svg" viewBox="0 0 434.76 398.37"><path d="M404.48,387.07H393.81V237.46a4.94,4.94,0,0,0-4.95-5H373.1V77.33a5,5,0,0,0-5-5h-101V55.69a4.88,4.88,0,0,0-1.49-3.53L215,2.7a4.92,4.92,0,0,0-6.91,0L157.51,52.16A4.92,4.92,0,0,0,156,55.69V387.07H136.54V6.23a5,5,0,0,0-5-4.95H34.53a5,5,0,0,0-4.94,5V387.07H18.69a4.95,4.95,0,1,0,0,9.9H404.48a5,5,0,0,0,0-9.9Zm-20.56,0H296.75V242.4h87.17ZM363.21,82.28V232.51H291.8a5,5,0,0,0-4.95,5V387.07H267.15V82.28ZM257.26,61.77V90.7H165.91V61.77Zm0,67.75H165.91V100.59h91.35Zm-91.34,9.89h91.35v28.93H165.92Zm0,38.83h91.35v28.92H165.92ZM211.59,13.15l39.64,38.73H172Zm-45.67,203.9h91.35v170H165.92ZM39.49,11.18h87.17V387.07H39.49Z" style="fill:#0d46a0;stroke:#0d46a0;stroke-miterlimit:10;stroke-width:3px"/><path d="M317.46,284.34a5,5,0,0,0,5-4.95V266.61a4.95,4.95,0,0,0-9.9,0v12.78A5,5,0,0,0,317.46,284.34Z" style="fill:#0d46a0;stroke:#0d46a0;stroke-miterlimit:10;stroke-width:3px"/><path d="M340.33,284.34a5,5,0,0,0,4.95-4.95V266.61a4.95,4.95,0,1,0-9.9,0v12.78A5,5,0,0,0,340.33,284.34Z" style="fill:#0d46a0;stroke:#0d46a0;stroke-miterlimit:10;stroke-width:3px"/><path d="M363.21,284.34a5,5,0,0,0,5-4.95V266.61a4.95,4.95,0,1,0-9.89,0v12.78A4.94,4.94,0,0,0,363.21,284.34Z" style="fill:#0d46a0;stroke:#0d46a0;stroke-miterlimit:10;stroke-width:3px"/><path d="M317.46,321.43a5,5,0,0,0,5-4.95V303.71a4.95,4.95,0,0,0-9.9,0v12.77A5,5,0,0,0,317.46,321.43Z" style="fill:#0d46a0;stroke:#0d46a0;stroke-miterlimit:10;stroke-width:3px"/><path d="M340.33,321.43a5,5,0,0,0,4.95-4.95V303.71a4.95,4.95,0,0,0-9.9,0v12.77A5,5,0,0,0,340.33,321.43Z" style="fill:#0d46a0;stroke:#0d46a0;stroke-miterlimit:10;stroke-width:3px"/><path d="M363.21,321.43a5,5,0,0,0,5-4.95V303.71a4.95,4.95,0,1,0-9.89,0v12.77A4.94,4.94,0,0,0,363.21,321.43Z" style="fill:#0d46a0;stroke:#0d46a0;stroke-miterlimit:10;stroke-width:3px"/><path d="M317.46,358.53a5,5,0,0,0,5-4.95V340.8a4.95,4.95,0,0,0-9.9,0v12.78A5,5,0,0,0,317.46,358.53Z" style="fill:#0d46a0;stroke:#0d46a0;stroke-miterlimit:10;stroke-width:3px"/><path d="M340.33,358.53a5,5,0,0,0,4.95-4.95V340.8a4.95,4.95,0,0,0-9.9,0v12.78A5,5,0,0,0,340.33,358.53Z" style="fill:#0d46a0;stroke:#0d46a0;stroke-miterlimit:10;stroke-width:3px"/><path d="M363.21,358.53a5,5,0,0,0,5-4.95V340.8a4.95,4.95,0,1,0-9.89,0v12.78A4.94,4.94,0,0,0,363.21,358.53Z" style="fill:#0d46a0;stroke:#0d46a0;stroke-miterlimit:10;stroke-width:3px"/><path d="M293.06,131.45a5,5,0,0,0,4.95-4.94V113.73a5,5,0,1,0-9.9,0v12.78A4.94,4.94,0,0,0,293.06,131.45Z" style="fill:#0d46a0;stroke:#0d46a0;stroke-miterlimit:10;stroke-width:3px"/><path d="M315.93,131.45a4.94,4.94,0,0,0,4.95-4.94V113.73a4.95,4.95,0,1,0-9.89,0v12.78A4.94,4.94,0,0,0,315.93,131.45Z" style="fill:#0d46a0;stroke:#0d46a0;stroke-miterlimit:10;stroke-width:3px"/><path d="M338.81,131.45a5,5,0,0,0,4.95-4.94V113.73a5,5,0,1,0-9.9,0v12.78A5,5,0,0,0,338.81,131.45Z" style="fill:#0d46a0;stroke:#0d46a0;stroke-miterlimit:10;stroke-width:3px"/><path d="M293.06,168.55a5,5,0,0,0,4.95-5V150.83a5,5,0,1,0-9.9,0V163.6A4.94,4.94,0,0,0,293.06,168.55Z" style="fill:#0d46a0;stroke:#0d46a0;stroke-miterlimit:10;stroke-width:3px"/><path d="M315.93,168.55a4.94,4.94,0,0,0,4.95-5V150.83a4.95,4.95,0,1,0-9.89,0V163.6A4.94,4.94,0,0,0,315.93,168.55Z" style="fill:#0d46a0;stroke:#0d46a0;stroke-miterlimit:10;stroke-width:3px"/><path d="M338.81,168.55a5,5,0,0,0,4.95-5V150.83a5,5,0,1,0-9.9,0V163.6A5,5,0,0,0,338.81,168.55Z" style="fill:#0d46a0;stroke:#0d46a0;stroke-miterlimit:10;stroke-width:3px"/><path d="M293.06,205.64A5,5,0,0,0,298,200.7V187.92a4.95,4.95,0,1,0-9.9,0V200.7A4.94,4.94,0,0,0,293.06,205.64Z" style="fill:#0d46a0;stroke:#0d46a0;stroke-miterlimit:10;stroke-width:3px"/><path d="M315.93,205.64a4.94,4.94,0,0,0,4.95-4.94V187.92a4.95,4.95,0,1,0-9.89,0V200.7A4.94,4.94,0,0,0,315.93,205.64Z" style="fill:#0d46a0;stroke:#0d46a0;stroke-miterlimit:10;stroke-width:3px"/><path d="M338.81,205.64a5,5,0,0,0,4.95-4.94V187.92a4.95,4.95,0,0,0-9.9,0V200.7A5,5,0,0,0,338.81,205.64Z" style="fill:#0d46a0;stroke:#0d46a0;stroke-miterlimit:10;stroke-width:3px"/><path d="M226.75,262.05H196.43a5,5,0,0,0-5,4.95v30.33a5,5,0,0,0,5,4.95h30.32a5,5,0,0,0,4.95-4.95V267A5,5,0,0,0,226.75,262.05Zm-4.95,30.33H201.37V272H221.8Z" style="fill:#0d46a0;stroke:#0d46a0;stroke-miterlimit:10;stroke-width:3px"/><path d="M226.75,319.52H196.43a4.94,4.94,0,0,0-5,4.94v30.33a5,5,0,0,0,5,4.95h30.32a5,5,0,0,0,4.95-4.95V324.46A5,5,0,0,0,226.75,319.52Zm-4.95,30.32H201.37V329.41H221.8Z" style="fill:#0d46a0;stroke:#0d46a0;stroke-miterlimit:10;stroke-width:3px"/><path d="M98.22,262.05H67.9A5,5,0,0,0,63,267v30.33a5,5,0,0,0,5,4.95H98.22a4.94,4.94,0,0,0,5-4.95V267A5,5,0,0,0,98.22,262.05Zm-4.94,30.33H72.85V272H93.28Z" style="fill:#0d46a0;stroke:#0d46a0;stroke-miterlimit:10;stroke-width:3px"/><path d="M98.22,206.33H67.9a5,5,0,0,0-5,4.95v30.33a5,5,0,0,0,5,4.95H98.22a4.94,4.94,0,0,0,5-4.95V211.28A4.94,4.94,0,0,0,98.22,206.33Zm-4.94,30.33H72.85V216.22H93.28Z" style="fill:#0d46a0;stroke:#0d46a0;stroke-miterlimit:10;stroke-width:3px"/><path d="M98.22,150.61H67.9a5,5,0,0,0-5,4.95v30.33a5,5,0,0,0,5,4.94H98.22a4.94,4.94,0,0,0,5-4.94V155.56A5,5,0,0,0,98.22,150.61Zm-4.94,30.33H72.85V160.51H93.28Z" style="fill:#0d46a0;stroke:#0d46a0;stroke-miterlimit:10;stroke-width:3px"/><path d="M98.22,94.9H67.9a5,5,0,0,0-5,4.95v30.32a5,5,0,0,0,5,5H98.22a4.94,4.94,0,0,0,5-5V99.85A4.94,4.94,0,0,0,98.22,94.9Zm-4.94,30.33H72.85V104.79H93.28Z" style="fill:#0d46a0;stroke:#0d46a0;stroke-miterlimit:10;stroke-width:3px"/><path d="M98.22,39.18H67.9a5,5,0,0,0-5,5V74.45a5,5,0,0,0,5,5H98.22a4.94,4.94,0,0,0,5-5V44.13A4.94,4.94,0,0,0,98.22,39.18ZM93.28,69.51H72.85V49.07H93.28Z" style="fill:#0d46a0;stroke:#0d46a0;stroke-miterlimit:10;stroke-width:3px"/><path d="M98.22,319.52H67.9a5,5,0,0,0-5,4.94v30.33a5,5,0,0,0,5,4.95H98.22a4.94,4.94,0,0,0,5-4.95V324.46A4.94,4.94,0,0,0,98.22,319.52Zm-4.94,30.32H72.85V329.41H93.28Z" style="fill:#0d46a0;stroke:#0d46a0;stroke-miterlimit:10;stroke-width:3px"/></svg>