<svg id="Layer_1" data-name="Layer 1" xmlns="http://www.w3.org/2000/svg" viewBox="0 0 434.76 398.37"><path d="M401.13,317.26a27.53,27.53,0,0,0-27.45,27.45,27.09,27.09,0,0,0,21.41,26.36v14.27H368.74V70.71a5.19,5.19,0,0,0-5.49-5.49H273.19a5.19,5.19,0,0,0-5.49,5.49v74.13h-4.94l-4.94-58.21c0-2.74-2.75-4.94-5.49-4.94H238.6c-2.75,0-5.49,2.2-5.49,4.94l-3.85,58.21h-4.94V92.12a5.19,5.19,0,0,0-5.49-5.49h-90.6a5.19,5.19,0,0,0-5.49,5.49v90.06H75a5.19,5.19,0,0,0-5.5,5.49V385.89H38.72V371.07a27.77,27.77,0,0,0,23.07-27.46,28,28,0,0,0-56,0,27.79,27.79,0,0,0,22,27.46v14.82H18.41a5.5,5.5,0,0,0,0,11h394.8a5.5,5.5,0,0,0,0-11h-7.14V372.17a27.22,27.22,0,0,0,22.52-26.91c-.56-15.93-12.64-28-27.46-28ZM16.76,343.07a17,17,0,1,1,17,17A17.11,17.11,0,0,1,16.76,343.07ZM278.68,76.2h79.08V385.35H323.71V149.78a5.19,5.19,0,0,0-5.49-5.49H278.68ZM243.54,92.13h3.85l3.84,52.16h-11Zm69.19,63.14V385.35H289.12V360.09a20.87,20.87,0,1,0-41.73,0v25.26H223.78V155.27ZM278.14,385.35H258.92V360.09a9.88,9.88,0,1,1,19.76,0v25.26ZM133.72,97.07h79.07V384.8H179.85V187.12a5.19,5.19,0,0,0-5.49-5.49H133.72ZM81,192.61h88.41V385.34H143.61V360.08a20.87,20.87,0,0,0-41.74,0v25.26H80.46V192.61Zm51.62,192.73H113.41V360.08a9.88,9.88,0,1,1,19.76,0v25.26Zm268.51-24.7a16.53,16.53,0,0,1-16.48-16.48,16.18,16.18,0,0,1,16.48-16.47,16.48,16.48,0,0,1,0,32.95Z" style="fill:#0d46a0;stroke:#0d46a0;stroke-miterlimit:10;stroke-width:2px"/><path d="M103,227.75a5.18,5.18,0,0,0,5.49-5.49v-7.69a5.49,5.49,0,0,0-11,0v7.69A5.19,5.19,0,0,0,103,227.75Z" style="fill:#0d46a0;stroke:#0d46a0;stroke-miterlimit:10;stroke-width:2px"/><path d="M124.94,227.75a5.19,5.19,0,0,0,5.49-5.49v-7.69a5.5,5.5,0,0,0-11,0v7.69a5.5,5.5,0,0,0,5.5,5.49Z" style="fill:#0d46a0;stroke:#0d46a0;stroke-miterlimit:10;stroke-width:2px"/><path d="M146.9,227.75a5.19,5.19,0,0,0,5.49-5.49v-7.69a5.49,5.49,0,1,0-11,0v7.69A5.49,5.49,0,0,0,146.9,227.75Z" style="fill:#0d46a0;stroke:#0d46a0;stroke-miterlimit:10;stroke-width:2px"/><path d="M103,258.5a5.18,5.18,0,0,0,5.49-5.49v-7.14a5.49,5.49,0,0,0-11,0v7.69c0,2.75,2.2,4.94,5.49,4.94Z" style="fill:#0d46a0;stroke:#0d46a0;stroke-miterlimit:10;stroke-width:2px"/><path d="M124.94,258.5a5.19,5.19,0,0,0,5.49-5.49v-7.14a5.49,5.49,0,1,0-11,0v7.69c0,2.75,2.75,4.94,5.5,4.94Z" style="fill:#0d46a0;stroke:#0d46a0;stroke-miterlimit:10;stroke-width:2px"/><path d="M146.9,258.5a5.19,5.19,0,0,0,5.49-5.49v-7.14a5.49,5.49,0,1,0-11,0v7.69c0,2.75,2.74,4.94,5.49,4.94Z" style="fill:#0d46a0;stroke:#0d46a0;stroke-miterlimit:10;stroke-width:2px"/><path d="M103,289.8a5.18,5.18,0,0,0,5.49-5.49v-7.69a5.49,5.49,0,0,0-11,0v7.69A5.5,5.5,0,0,0,103,289.8Z" style="fill:#0d46a0;stroke:#0d46a0;stroke-miterlimit:10;stroke-width:2px"/><path d="M124.94,289.8a5.19,5.19,0,0,0,5.49-5.49v-7.69a5.5,5.5,0,0,0-11,0v7.69a5.91,5.91,0,0,0,5.5,5.49Z" style="fill:#0d46a0;stroke:#0d46a0;stroke-miterlimit:10;stroke-width:2px"/><path d="M146.9,289.8a5.19,5.19,0,0,0,5.49-5.49v-7.69a5.49,5.49,0,1,0-11,0v7.69a5.9,5.9,0,0,0,5.49,5.49Z" style="fill:#0d46a0;stroke:#0d46a0;stroke-miterlimit:10;stroke-width:2px"/><path d="M103,320.55a5.18,5.18,0,0,0,5.49-5.49v-7.69a5.49,5.49,0,0,0-11,0v7.69A5.19,5.19,0,0,0,103,320.55Z" style="fill:#0d46a0;stroke:#0d46a0;stroke-miterlimit:10;stroke-width:2px"/><path d="M124.94,320.55a5.19,5.19,0,0,0,5.49-5.49v-7.69a5.5,5.5,0,0,0-11,0v7.69a5.5,5.5,0,0,0,5.5,5.49Z" style="fill:#0d46a0;stroke:#0d46a0;stroke-miterlimit:10;stroke-width:2px"/><path d="M146.9,320.55a5.19,5.19,0,0,0,5.49-5.49v-7.69a5.49,5.49,0,1,0-11,0v7.69A5.49,5.49,0,0,0,146.9,320.55Z" style="fill:#0d46a0;stroke:#0d46a0;stroke-miterlimit:10;stroke-width:2px"/><path d="M296.26,85.54a5.19,5.19,0,0,0-5.5,5.49v7.69a5.5,5.5,0,0,0,11,0V91A5.51,5.51,0,0,0,296.26,85.54Z" style="fill:#0d46a0;stroke:#0d46a0;stroke-miterlimit:10;stroke-width:2px"/><path d="M318.22,103.66a5.19,5.19,0,0,0,5.49-5.49V90.48a5.49,5.49,0,1,0-11,0v7.69A5.5,5.5,0,0,0,318.22,103.66Z" style="fill:#0d46a0;stroke:#0d46a0;stroke-miterlimit:10;stroke-width:2px"/><path d="M340.18,103.66a5.19,5.19,0,0,0,5.5-5.49V90.48a5.5,5.5,0,0,0-11,0v7.69A5.51,5.51,0,0,0,340.18,103.66Z" style="fill:#0d46a0;stroke:#0d46a0;stroke-miterlimit:10;stroke-width:2px"/><path d="M296.26,116.29a5.19,5.19,0,0,0-5.5,5.49v7.69a5.5,5.5,0,0,0,11,0v-7.69A5.51,5.51,0,0,0,296.26,116.29Z" style="fill:#0d46a0;stroke:#0d46a0;stroke-miterlimit:10;stroke-width:2px"/><path d="M323.71,128.92v-7.69a5.49,5.49,0,1,0-11,0v7.69a5.49,5.49,0,1,0,11,0Z" style="fill:#0d46a0;stroke:#0d46a0;stroke-miterlimit:10;stroke-width:2px"/><path d="M340.18,134.41a5.2,5.2,0,0,0,5.5-5.5v-7.68a5.5,5.5,0,1,0-11,0v7.68A5.51,5.51,0,0,0,340.18,134.41Z" style="fill:#0d46a0;stroke:#0d46a0;stroke-miterlimit:10;stroke-width:2px"/><path d="M340.18,165.16a5.2,5.2,0,0,0,5.5-5.5V152a5.5,5.5,0,1,0-11,0v7.68A5.51,5.51,0,0,0,340.18,165.16Z" style="fill:#0d46a0;stroke:#0d46a0;stroke-miterlimit:10;stroke-width:2px"/><path d="M340.18,195.91a5.2,5.2,0,0,0,5.5-5.5v-7.68a5.5,5.5,0,1,0-11,0v7.68A5.51,5.51,0,0,0,340.18,195.91Z" style="fill:#0d46a0;stroke:#0d46a0;stroke-miterlimit:10;stroke-width:2px"/><path d="M340.18,226.66a5.2,5.2,0,0,0,5.5-5.5v-7.68a5.5,5.5,0,1,0-11,0v7.68A5.91,5.91,0,0,0,340.18,226.66Z" style="fill:#0d46a0;stroke:#0d46a0;stroke-miterlimit:10;stroke-width:2px"/><path d="M340.18,257.41a5.2,5.2,0,0,0,5.5-5.5v-7.68a5.5,5.5,0,1,0-11,0v7.68A5.91,5.91,0,0,0,340.18,257.41Z" style="fill:#0d46a0;stroke:#0d46a0;stroke-miterlimit:10;stroke-width:2px"/><path d="M340.18,287.61a5.2,5.2,0,0,0,5.5-5.5v-7.68a5.5,5.5,0,1,0-11,0v7.68A5.91,5.91,0,0,0,340.18,287.61Z" style="fill:#0d46a0;stroke:#0d46a0;stroke-miterlimit:10;stroke-width:2px"/><path d="M340.18,317.81a5.2,5.2,0,0,0,5.5-5.5v-7.68a5.5,5.5,0,1,0-11,0v7.68A5.51,5.51,0,0,0,340.18,317.81Z" style="fill:#0d46a0;stroke:#0d46a0;stroke-miterlimit:10;stroke-width:2px"/><path d="M340.18,348.56a5.2,5.2,0,0,0,5.5-5.5v-7.68a5.5,5.5,0,1,0-11,0v7.68A5.51,5.51,0,0,0,340.18,348.56Z" style="fill:#0d46a0;stroke:#0d46a0;stroke-miterlimit:10;stroke-width:2px"/><path d="M152.39,108.6a5.19,5.19,0,0,0-5.49,5.49v6a5.49,5.49,0,0,0,11,0v-6A5.51,5.51,0,0,0,152.39,108.6Z" style="fill:#0d46a0;stroke:#0d46a0;stroke-miterlimit:10;stroke-width:2px"/><path d="M174.9,125.62a5.19,5.19,0,0,0,5.5-5.49v-6a5.5,5.5,0,0,0-11,0v6A5.2,5.2,0,0,0,174.9,125.62Z" style="fill:#0d46a0;stroke:#0d46a0;stroke-miterlimit:10;stroke-width:2px"/><path d="M196.87,125.62a5.19,5.19,0,0,0,5.49-5.49v-6a5.5,5.5,0,0,0-11,0v6A5.2,5.2,0,0,0,196.87,125.62Z" style="fill:#0d46a0;stroke:#0d46a0;stroke-miterlimit:10;stroke-width:2px"/><path d="M152.39,132.76a5.19,5.19,0,0,0-5.49,5.49v6a5.49,5.49,0,1,0,11,0v-6A5.19,5.19,0,0,0,152.39,132.76Z" style="fill:#0d46a0;stroke:#0d46a0;stroke-miterlimit:10;stroke-width:2px"/><path d="M174.9,149.23a5.19,5.19,0,0,0,5.5-5.49v-6a5.5,5.5,0,0,0-11,0v6A5.19,5.19,0,0,0,174.9,149.23Z" style="fill:#0d46a0;stroke:#0d46a0;stroke-miterlimit:10;stroke-width:2px"/><path d="M196.87,149.23a5.19,5.19,0,0,0,5.49-5.49v-6a5.49,5.49,0,0,0-11,0v6A5.18,5.18,0,0,0,196.87,149.23Z" style="fill:#0d46a0;stroke:#0d46a0;stroke-miterlimit:10;stroke-width:2px"/><path d="M152.39,156.37a5.19,5.19,0,0,0-5.49,5.49v6a5.49,5.49,0,1,0,11,0v-6a5.51,5.51,0,0,0-5.49-5.49Z" style="fill:#0d46a0;stroke:#0d46a0;stroke-miterlimit:10;stroke-width:2px"/><path d="M180.39,167.9v-6a5.49,5.49,0,1,0-11,0v6a5.18,5.18,0,0,0,5.49,5.49A5.49,5.49,0,0,0,180.39,167.9Z" style="fill:#0d46a0;stroke:#0d46a0;stroke-miterlimit:10;stroke-width:2px"/><path d="M196.87,173.39a5.19,5.19,0,0,0,5.49-5.49v-6a5.49,5.49,0,0,0-11,0v6A5.49,5.49,0,0,0,196.87,173.39Z" style="fill:#0d46a0;stroke:#0d46a0;stroke-miterlimit:10;stroke-width:2px"/><path d="M196.87,199.75a5.19,5.19,0,0,0,5.49-5.49v-6a5.49,5.49,0,1,0-11,0v6A5.18,5.18,0,0,0,196.87,199.75Z" style="fill:#0d46a0;stroke:#0d46a0;stroke-miterlimit:10;stroke-width:2px"/><path d="M196.87,223.91a5.19,5.19,0,0,0,5.49-5.49v-6a5.49,5.49,0,0,0-11,0v6A5.5,5.5,0,0,0,196.87,223.91Z" style="fill:#0d46a0;stroke:#0d46a0;stroke-miterlimit:10;stroke-width:2px"/><path d="M196.87,247.52a5.19,5.19,0,0,0,5.49-5.49v-6a5.49,5.49,0,0,0-11,0v6A5.18,5.18,0,0,0,196.87,247.52Z" style="fill:#0d46a0;stroke:#0d46a0;stroke-miterlimit:10;stroke-width:2px"/><path d="M196.87,271.68a5.19,5.19,0,0,0,5.49-5.49v-6a5.49,5.49,0,0,0-11,0v6A5.49,5.49,0,0,0,196.87,271.68Z" style="fill:#0d46a0;stroke:#0d46a0;stroke-miterlimit:10;stroke-width:2px"/><path d="M196.87,295.29a5.19,5.19,0,0,0,5.49-5.49v-5.49a5.5,5.5,0,0,0-11,0v5.49A5.18,5.18,0,0,0,196.87,295.29Z" style="fill:#0d46a0;stroke:#0d46a0;stroke-miterlimit:10;stroke-width:2px"/><path d="M196.87,319.45a5.19,5.19,0,0,0,5.49-5.49v-6a5.49,5.49,0,0,0-11,0v6A5.49,5.49,0,0,0,196.87,319.45Z" style="fill:#0d46a0;stroke:#0d46a0;stroke-miterlimit:10;stroke-width:2px"/><path d="M196.87,343.07a5.19,5.19,0,0,0,5.49-5.5v-6a5.49,5.49,0,0,0-11,0v6A5.19,5.19,0,0,0,196.87,343.07Z" style="fill:#0d46a0;stroke:#0d46a0;stroke-miterlimit:10;stroke-width:2px"/><path d="M234.76,73.46a17,17,0,0,0,0-34c-9.34,0-17.58,7.69-17.58,17A17.24,17.24,0,0,0,234.76,73.46Zm0-23.07a6,6,0,0,1,0,12.09c-3.3,0-6.6-2.75-6.6-6S230.91,50.39,234.76,50.39Z" style="fill:#0d46a0;stroke:#0d46a0;stroke-miterlimit:10;stroke-width:2px"/><path d="M191.38,52a25.81,25.81,0,1,0-25.81-25.81A25.78,25.78,0,0,0,191.38,52Zm0-40.63a14.83,14.83,0,1,1-14.83,14.83A14.76,14.76,0,0,1,191.38,11.41Z" style="fill:#0d46a0;stroke:#0d46a0;stroke-miterlimit:10;stroke-width:2px"/><path d="M245.19,307.92h47.22a5.49,5.49,0,0,0,0-11H245.19a5.49,5.49,0,0,0,0,11Z" style="fill:#0d46a0;stroke:#0d46a0;stroke-miterlimit:10;stroke-width:2px"/><path d="M245.19,283.21h47.22a5.49,5.49,0,0,0,0-11H245.19a5.49,5.49,0,0,0,0,11Z" style="fill:#0d46a0;stroke:#0d46a0;stroke-miterlimit:10;stroke-width:2px"/><path d="M245.19,258.5h47.22a5.49,5.49,0,0,0,0-11H245.19a5.49,5.49,0,1,0,0,11Z" style="fill:#0d46a0;stroke:#0d46a0;stroke-miterlimit:10;stroke-width:2px"/><path d="M245.19,233.79h47.22a5.49,5.49,0,0,0,0-11H245.19a5.49,5.49,0,0,0,0,11Z" style="fill:#0d46a0;stroke:#0d46a0;stroke-miterlimit:10;stroke-width:2px"/><path d="M245.19,209.08h47.22a5.49,5.49,0,0,0,0-11H245.19a5.49,5.49,0,0,0,0,11Z" style="fill:#0d46a0;stroke:#0d46a0;stroke-miterlimit:10;stroke-width:2px"/><path d="M245.19,184.38h47.22a5.5,5.5,0,0,0,0-11H245.19a5.5,5.5,0,0,0,0,11Z" style="fill:#0d46a0;stroke:#0d46a0;stroke-miterlimit:10;stroke-width:2px"/></svg>