<?xml version="1.0" encoding="utf-8"?>
<!-- Generator: Adobe Illustrator 26.0.1, SVG Export Plug-In . SVG Version: 6.00 Build 0)  -->
<svg version="1.1" id="Layer_1" xmlns="http://www.w3.org/2000/svg" xmlns:xlink="http://www.w3.org/1999/xlink" x="0px" y="0px"
	 viewBox="0 0 434.8 398.4" style="enable-background:new 0 0 434.8 398.4;" xml:space="preserve">
<style type="text/css">
	.st0{fill:#0D46A0;stroke:#0D46A0;stroke-width:3;stroke-miterlimit:10;}
	.st1{fill:#0D46A0;stroke:#0D46A0;stroke-width:2;stroke-miterlimit:10;}
</style>
<path class="st0" d="M904.3,385.7h-14V9.9c-0.2-1.7-1-3.3-2.2-4.5c-1.5-1-3.3-1.2-5-0.6L775,46.9c-2,0.8-3.4,2.8-3.4,5v333.2h-11.8
	l-22.4-62.7l3.9-90.2l15.7-86.8c0.5-2.3-0.6-4.6-2.8-5.6l-126-76.7c-1.7-1.1-3.9-1.1-5.6,0c-1.7,1.1-2.8,3-2.8,5v317.6h-13.4V142.1
	c0.2-2.9-2-5.4-5-5.6c-0.2,0-0.4,0-0.6,0h-8.4v-84c0.2-2.9-2-5.4-5-5.6c-0.2,0-0.4,0-0.6,0h-29.7V7.1c0-3.1-2.5-5.6-5.6-5.6
	c-3.1,0-5.6,2.5-5.6,5.6c0,0,0,0,0,0v39.8h-29.7c-2.9-0.2-5.4,2.1-5.6,5c0,0.2,0,0.4,0,0.6v84h-7.3c-2.9-0.2-5.4,2-5.6,5
	c0,0.2,0,0.4,0,0.6v243.6h-14c-3.1,0-5.6,2.5-5.6,5.6s2.5,5.6,5.6,5.6h420.6c2.9,0.2,5.4-2,5.6-5c0-0.2,0-0.4,0-0.6
	C909.9,388.2,907.4,385.7,904.3,385.7z M521.8,58.1h59.9v78.4h-59.9V58.1z M595.2,385.7H509v-238h86.2V385.7z M672.5,385.7v-28.6
	c-0.2-6.2,4.7-11.3,10.9-11.5c6.2-0.2,11.3,4.7,11.5,10.9c0,0.2,0,0.4,0,0.7v28.6L672.5,385.7z M707.8,385.1v-28.6
	c0.3-12.4-9.6-22.6-21.9-22.9c-12.4-0.3-22.6,9.6-22.9,21.9c0,0.3,0,0.6,0,0.9v28.6h-30.8V78.9l112.5,68.2l-14.5,83.4v0.6l-4.5,91.9
	c-0.1,0.8,0.1,1.6,0.6,2.2l21.8,59.9L707.8,385.1z M878.6,385.7h-96.3V140.4l96.3-38.1V385.7z M879.1,90l-96.3,38.1V55.8l96.3-38.1
	V90z"/>
<path class="st0" d="M705,177.9c-2.9-0.2-5.4,2-5.6,5c0,0.2,0,0.4,0,0.6V202c0,3.1,2.5,5.6,5.6,5.6s5.6-2.5,5.6-5.6c0,0,0,0,0,0
	v-18.5c0.2-2.9-2-5.4-5-5.6C705.4,177.9,705.2,177.9,705,177.9z"/>
<path class="st0" d="M678.1,177.9c-2.9-0.2-5.4,2-5.6,5c0,0.2,0,0.4,0,0.6V202c0,3.1,2.5,5.6,5.6,5.6c2.9,0.2,5.4-2.1,5.6-5
	c0-0.2,0-0.4,0-0.6v-18.5c0.2-2.9-2-5.4-5-5.6C678.5,177.9,678.3,177.9,678.1,177.9z"/>
<path class="st0" d="M651.8,177.9L651.8,177.9c-2.9-0.2-5.4,2-5.6,5c0,0.2,0,0.4,0,0.6V202c0,3.1,2.5,5.6,5.6,5.6s5.6-2.5,5.6-5.6
	c0,0,0,0,0,0v-18.5C657.3,180.4,654.8,177.9,651.8,177.9z"/>
<path class="st0" d="M705,226.1c-2.9-0.2-5.4,2-5.6,5c0,0.2,0,0.4,0,0.6v18.5c0,3.1,2.5,5.6,5.6,5.6s5.6-2.5,5.6-5.6c0,0,0,0,0,0
	v-18.5c0.2-2.9-2-5.4-5-5.6C705.4,226.1,705.2,226.1,705,226.1z"/>
<path class="st0" d="M678.1,226.1c-2.9-0.2-5.4,2-5.6,5c0,0.2,0,0.4,0,0.6v18.5c0,3.1,2.5,5.6,5.6,5.6c2.9,0.2,5.4-2,5.6-5
	c0-0.2,0-0.4,0-0.6v-18.5c0.2-2.9-2-5.4-5-5.6C678.5,226.1,678.3,226.1,678.1,226.1z"/>
<path class="st0" d="M651.8,226.1c-2.9-0.2-5.4,2-5.6,5c0,0.2,0,0.4,0,0.6v18.5c0,3.1,2.5,5.6,5.6,5.6c3.1,0,5.6-2.5,5.6-5.6v-18.5
	C657.2,228.7,654.8,226.3,651.8,226.1z"/>
<path class="st0" d="M705,274.8c-2.9-0.2-5.4,2-5.6,5c0,0.2,0,0.4,0,0.6v18.5c0,3.1,2.5,5.6,5.6,5.6c2.9,0.2,5.4-2,5.6-5
	c0-0.2,0-0.4,0-0.6v-18.5c0.2-2.9-2-5.4-5-5.6C705.4,274.8,705.2,274.8,705,274.8z"/>
<path class="st0" d="M678.1,274.8c-2.9-0.2-5.4,2-5.6,5c0,0.2,0,0.4,0,0.6v18.5c0.2,3,2.6,5.4,5.6,5.6c2.9,0.2,5.4-2,5.6-5
	c0-0.2,0-0.4,0-0.6v-18.5c0.2-2.9-2-5.4-5-5.6C678.5,274.8,678.3,274.8,678.1,274.8z"/>
<path class="st0" d="M651.8,274.2c-2.9-0.2-5.4,2-5.6,5c0,0.2,0,0.4,0,0.6v18.5c0,3.1,2.5,5.6,5.6,5.6s5.6-2.5,5.6-5.6c0,0,0,0,0,0
	v-18.5C657.2,276.8,654.8,274.4,651.8,274.2z"/>
<path class="st0" d="M575.6,291c2.9,0.2,5.4-2,5.6-5c0-0.2,0-0.4,0-0.6v-43.6c0-3.1-2.5-5.6-5.6-5.6c-2.9-0.2-5.4,2-5.6,5
	c0,0.2,0,0.4,0,0.6v43.7c-0.2,2.9,2.1,5.4,5,5.6C575.2,291,575.4,291,575.6,291z"/>
<path class="st0" d="M552.1,291c2.9,0.2,5.4-2,5.6-5c0-0.2,0-0.4,0-0.6v-43.6c0-3.1-2.5-5.6-5.6-5.6c-3.1,0-5.6,2.5-5.6,5.6
	c0,0,0,0,0,0v43.7c-0.2,2.9,2.1,5.4,5,5.6C551.7,291,551.9,291,552.1,291z"/>
<path class="st0" d="M529.1,291c2.9,0.2,5.4-2,5.6-5c0-0.2,0-0.4,0-0.6v-43.6c0-3.1-2.5-5.6-5.6-5.6c-2.9-0.2-5.4,2-5.6,5
	c0,0.2,0,0.4,0,0.6v43.7c-0.2,2.9,2.1,5.4,5,5.6C528.7,291,528.9,291,529.1,291z"/>
<path class="st0" d="M575.6,221c2.9,0.2,5.4-2,5.6-5c0-0.2,0-0.4,0-0.6v-43.6c0-3.1-2.5-5.6-5.6-5.6c-2.9-0.2-5.4,2-5.6,5
	c0,0.2,0,0.4,0,0.6v43.7c-0.2,2.9,2.1,5.4,5,5.6C575.2,221,575.4,221,575.6,221z"/>
<path class="st0" d="M552.1,221c2.9,0.2,5.4-2,5.6-5c0-0.2,0-0.4,0-0.6v-43.6c0-3.1-2.5-5.6-5.6-5.6c-3.1,0-5.6,2.5-5.6,5.6
	c0,0,0,0,0,0v43.7c-0.2,2.9,2.1,5.4,5,5.6C551.7,221,551.9,221,552.1,221z"/>
<path class="st0" d="M529.1,221c2.9,0.2,5.4-2,5.6-5c0-0.2,0-0.4,0-0.6v-43.6c0-3.1-2.5-5.6-5.6-5.6c-2.9-0.2-5.4,2-5.6,5
	c0,0.2,0,0.4,0,0.6v43.7c-0.2,2.9,2.1,5.4,5,5.6C528.7,221,528.9,221,529.1,221z"/>
<path class="st0" d="M575.6,359.4c2.9,0.2,5.4-2,5.6-5c0-0.2,0-0.4,0-0.6v-43.7c-0.2-3-2.6-5.4-5.6-5.6c-2.9-0.2-5.4,2-5.6,5
	c0,0.2,0,0.4,0,0.6v43.7c-0.2,2.9,2,5.4,5,5.6C575.2,359.4,575.4,359.4,575.6,359.4z"/>
<path class="st0" d="M552.1,359.4c2.9,0.2,5.4-2,5.6-5c0-0.2,0-0.4,0-0.6v-43.7c0-3.1-2.5-5.6-5.6-5.6c-2.9-0.2-5.4,2-5.6,5
	c0,0.2,0,0.4,0,0.6v43.7c-0.2,2.9,2,5.4,5,5.6C551.6,359.4,551.9,359.4,552.1,359.4z"/>
<path class="st0" d="M529.1,359.4c2.9,0.2,5.4-2,5.6-5c0-0.2,0-0.4,0-0.6v-43.7c-0.2-3-2.6-5.4-5.6-5.6c-2.9-0.2-5.4,2-5.6,5
	c0,0.2,0,0.4,0,0.6v43.7c-0.2,2.9,2,5.4,5,5.6C528.7,359.4,528.9,359.4,529.1,359.4z"/>
<path class="st0" d="M853.9,291c2.9,0.2,5.4-2,5.6-5c0-0.2,0-0.4,0-0.6v-43.6c0-3.1-2.5-5.6-5.6-5.6c-2.9-0.2-5.4,2-5.6,5
	c0,0.2,0,0.4,0,0.6v43.7c-0.2,2.9,2.1,5.4,5,5.6C853.5,291,853.7,291,853.9,291z"/>
<path class="st0" d="M830.4,291c2.9,0.2,5.4-2,5.6-5c0-0.2,0-0.4,0-0.6v-43.6c0-3.1-2.5-5.6-5.6-5.6c-3.1,0-5.6,2.5-5.6,5.6v43.7
	c-0.2,2.9,2.1,5.4,5,5.6C830,291,830.2,291,830.4,291z"/>
<path class="st0" d="M807.4,291c2.9,0.2,5.4-2,5.6-5c0-0.2,0-0.4,0-0.6v-43.6c0-3.1-2.5-5.6-5.6-5.6c-3.1,0-5.6,2.5-5.6,5.6v43.7
	c-0.2,2.9,2.1,5.4,5,5.6C807,291,807.2,291,807.4,291z"/>
<path class="st0" d="M853.9,221c2.9,0.2,5.4-2,5.6-5c0-0.2,0-0.4,0-0.6v-43.6c0-3.1-2.5-5.6-5.6-5.6c-2.9-0.2-5.4,2-5.6,5
	c0,0.2,0,0.4,0,0.6v43.7c-0.2,2.9,2.1,5.4,5,5.6C853.5,221,853.7,221,853.9,221z"/>
<path class="st0" d="M830.4,221c2.9,0.2,5.4-2,5.6-5c0-0.2,0-0.4,0-0.6v-43.6c0-3.1-2.5-5.6-5.6-5.6c-3.1,0-5.6,2.5-5.6,5.6v43.7
	c-0.2,2.9,2.1,5.4,5,5.6C830,221,830.2,221,830.4,221z"/>
<path class="st0" d="M807.4,221c2.9,0.2,5.4-2,5.6-5c0-0.2,0-0.4,0-0.6v-43.6c0-3.1-2.5-5.6-5.6-5.6c-3.1,0-5.6,2.5-5.6,5.6v43.7
	c-0.2,2.9,2.1,5.4,5,5.6C807,221,807.2,221,807.4,221z"/>
<path class="st0" d="M853.9,359.4c2.9,0.2,5.4-2,5.6-5c0-0.2,0-0.4,0-0.6v-43.7c-0.2-3-2.6-5.4-5.6-5.6c-2.9-0.2-5.4,2-5.6,5
	c0,0.2,0,0.4,0,0.6v43.7c-0.2,2.9,2,5.4,5,5.6C853.5,359.4,853.7,359.4,853.9,359.4z"/>
<path class="st0" d="M830.4,359.4c2.9,0.2,5.4-2,5.6-5c0-0.2,0-0.4,0-0.6v-43.7c0-3.1-2.5-5.6-5.6-5.6c-2.9-0.2-5.4,2-5.6,5
	c0,0.2,0,0.4,0,0.6v43.7c-0.2,2.9,2,5.4,5,5.6C830,359.4,830.2,359.4,830.4,359.4z"/>
<path class="st0" d="M807.4,359.4c2.9,0.2,5.4-2,5.6-5c0-0.2,0-0.4,0-0.6v-43.7c0-3.1-2.5-5.6-5.6-5.6c-2.9-0.2-5.4,2-5.6,5
	c0,0.2,0,0.4,0,0.6v43.7c-0.2,2.9,2,5.4,5,5.6C807,359.4,807.2,359.4,807.4,359.4z"/>
<g>
	<path class="st1" d="M401.1,317.3c-14.8,0-27.5,12.1-27.5,27.5c0,13.2,9.3,23.6,21.4,26.4v14.3h-26.4l0-314.6
		c0-3.3-2.2-5.5-5.5-5.5h-90c-3.3,0-5.5,2.2-5.5,5.5v74.1h-4.9l-4.9-58.2c0-2.7-2.7-4.9-5.5-4.9h-13.7c-2.7,0-5.5,2.2-5.5,4.9
		l-3.8,58.2h-4.9V92.1c0-3.3-2.2-5.5-5.5-5.5l-90.6,0c-3.3,0-5.5,2.2-5.5,5.5v90.1H75c-3.3,0-5.5,2.2-5.5,5.5v198.2H38.7v-14.8
		c13.2-2.2,23.1-13.7,23.1-27.5c0-15.4-12.6-28-28-28s-28,12.6-28,28c0,13.7,9.3,24.7,22,27.5v14.8h-9.3c-3.3,0-5.5,2.2-5.5,5.5
		c0,3.3,2.2,5.5,5.5,5.5h394.8c3.3,0,5.5-2.2,5.5-5.5c0-3.3-2.2-5.5-5.5-5.5h-7.1v-13.7c12.6-2.2,22.5-13.2,22.5-26.9
		C428,329.3,416,317.3,401.1,317.3L401.1,317.3z M16.8,343.1c0-9.3,7.7-17,17-17c9.3,0,17,7.7,17,17s-7.7,17-17,17
		C24.4,360.1,16.8,352.4,16.8,343.1z M278.7,76.2h79.1v309.1h-34V149.8c0-3.3-2.2-5.5-5.5-5.5h-39.5L278.7,76.2z M243.5,92.1h3.8
		l3.8,52.2h-11L243.5,92.1z M312.7,155.3v230.1h-23.6v-25.3c0-11.5-9.3-20.9-20.9-20.9c-11.5,0-20.9,9.3-20.9,20.9v25.3h-23.6
		l0-230.1L312.7,155.3z M278.1,385.3h-19.2v-25.3c0-5.5,4.4-9.9,9.9-9.9c5.5,0,9.9,4.4,9.9,9.9l0,25.3H278.1z M133.7,97.1h79.1
		v287.7h-32.9l0-197.7c0-3.3-2.2-5.5-5.5-5.5h-40.6L133.7,97.1z M81,192.6h88.4v192.7h-25.8v-25.3c0-11.5-9.3-20.9-20.9-20.9
		c-11.5,0-20.9,9.3-20.9,20.9v25.3H80.5V192.6H81z M132.6,385.3h-19.2v-25.3c0-5.5,4.4-9.9,9.9-9.9c5.5,0,9.9,4.4,9.9,9.9l0,25.3
		H132.6z M401.1,360.6c-8.8,0-16.5-7.1-16.5-16.5c0-9.3,7.1-16.5,16.5-16.5c8.8,0,16.5,7.1,16.5,16.5
		C417.6,353.5,409.9,360.6,401.1,360.6z"/>
	<path class="st1" d="M103,227.8c3.3,0,5.5-2.2,5.5-5.5v-7.7c0-3.3-2.2-5.5-5.5-5.5c-3.3,0-5.5,2.2-5.5,5.5v7.7
		C97.5,225.6,99.7,227.8,103,227.8z"/>
	<path class="st1" d="M124.9,227.8c3.3,0,5.5-2.2,5.5-5.5v-7.7c0-3.3-2.2-5.5-5.5-5.5c-3.3,0-5.5,2.2-5.5,5.5v7.7
		C119.4,225.6,122.2,227.8,124.9,227.8L124.9,227.8z"/>
	<path class="st1" d="M146.9,227.8c3.3,0,5.5-2.2,5.5-5.5v-7.7c0-3.3-2.2-5.5-5.5-5.5c-3.3,0-5.5,2.2-5.5,5.5v7.7
		C141.4,225.6,144.2,227.8,146.9,227.8z"/>
	<path class="st1" d="M103,258.5c3.3,0,5.5-2.2,5.5-5.5v-7.1c0-3.3-2.2-5.5-5.5-5.5c-3.3,0-5.5,2.2-5.5,5.5v7.7
		C97.5,256.3,99.7,258.5,103,258.5L103,258.5z"/>
	<path class="st1" d="M124.9,258.5c3.3,0,5.5-2.2,5.5-5.5l0-7.1c0-3.3-2.2-5.5-5.5-5.5c-3.3,0-5.5,2.2-5.5,5.5v7.7
		C119.4,256.3,122.2,258.5,124.9,258.5L124.9,258.5z"/>
	<path class="st1" d="M146.9,258.5c3.3,0,5.5-2.2,5.5-5.5v-7.1c0-3.3-2.2-5.5-5.5-5.5c-3.3,0-5.5,2.2-5.5,5.5v7.7
		C141.4,256.3,144.2,258.5,146.9,258.5L146.9,258.5z"/>
	<path class="st1" d="M103,289.8c3.3,0,5.5-2.2,5.5-5.5v-7.7c0-3.3-2.2-5.5-5.5-5.5c-3.3,0-5.5,2.2-5.5,5.5l0,7.7
		C97.5,287.1,99.7,289.8,103,289.8L103,289.8z"/>
	<path class="st1" d="M124.9,289.8c3.3,0,5.5-2.2,5.5-5.5v-7.7c0-3.3-2.2-5.5-5.5-5.5c-3.3,0-5.5,2.2-5.5,5.5v7.7
		C119.4,287.1,122.2,289.8,124.9,289.8L124.9,289.8z"/>
	<path class="st1" d="M146.9,289.8c3.3,0,5.5-2.2,5.5-5.5v-7.7c0-3.3-2.2-5.5-5.5-5.5c-3.3,0-5.5,2.2-5.5,5.5v7.7
		C141.4,287.1,144.2,289.8,146.9,289.8L146.9,289.8z"/>
	<path class="st1" d="M103,320.6c3.3,0,5.5-2.2,5.5-5.5v-7.7c0-3.3-2.2-5.5-5.5-5.5c-3.3,0-5.5,2.2-5.5,5.5v7.7
		C97.5,318.4,99.7,320.6,103,320.6z"/>
	<path class="st1" d="M124.9,320.6c3.3,0,5.5-2.2,5.5-5.5v-7.7c0-3.3-2.2-5.5-5.5-5.5c-3.3,0-5.5,2.2-5.5,5.5v7.7
		C119.4,318.4,122.2,320.6,124.9,320.6L124.9,320.6z"/>
	<path class="st1" d="M146.9,320.6c3.3,0,5.5-2.2,5.5-5.5v-7.7c0-3.3-2.2-5.5-5.5-5.5c-3.3,0-5.5,2.2-5.5,5.5v7.7
		C141.4,318.4,144.2,320.6,146.9,320.6z"/>
	<path class="st1" d="M296.3,85.5c-3.3,0-5.5,2.2-5.5,5.5v7.7c0,3.3,2.2,5.5,5.5,5.5c3.3,0,5.5-2.2,5.5-5.5V91
		C301.7,87.7,299,85.5,296.3,85.5z"/>
	<path class="st1" d="M318.2,103.7c3.3,0,5.5-2.2,5.5-5.5v-7.7c0-3.3-2.2-5.5-5.5-5.5c-3.3,0-5.5,2.2-5.5,5.5v7.7
		C312.7,101.5,315.5,103.7,318.2,103.7z"/>
	<path class="st1" d="M340.2,103.7c3.3,0,5.5-2.2,5.5-5.5v-7.7c0-3.3-2.2-5.5-5.5-5.5c-3.3,0-5.5,2.2-5.5,5.5v7.7
		C334.7,101.5,337.4,103.7,340.2,103.7z"/>
	<path class="st1" d="M296.3,116.3c-3.3,0-5.5,2.2-5.5,5.5v7.7c0,3.3,2.2,5.5,5.5,5.5c3.3,0,5.5-2.2,5.5-5.5v-7.7
		C301.7,118.5,299,116.3,296.3,116.3z"/>
	<path class="st1" d="M323.7,128.9v-7.7c0-3.3-2.2-5.5-5.5-5.5c-3.3,0-5.5,2.2-5.5,5.5v7.7c0,3.3,2.2,5.5,5.5,5.5
		C321.5,134.4,323.7,132.2,323.7,128.9z"/>
	<path class="st1" d="M340.2,134.4c3.3,0,5.5-2.2,5.5-5.5v-7.7c0-3.3-2.2-5.5-5.5-5.5c-3.3,0-5.5,2.2-5.5,5.5v7.7
		C334.7,132.2,337.4,134.4,340.2,134.4z"/>
	<path class="st1" d="M340.2,165.2c3.3,0,5.5-2.2,5.5-5.5V152c0-3.3-2.2-5.5-5.5-5.5c-3.3,0-5.5,2.2-5.5,5.5v7.7
		C334.7,163,337.4,165.2,340.2,165.2z"/>
	<path class="st1" d="M340.2,195.9c3.3,0,5.5-2.2,5.5-5.5v-7.7c0-3.3-2.2-5.5-5.5-5.5c-3.3,0-5.5,2.2-5.5,5.5v7.7
		C334.7,193.7,337.4,195.9,340.2,195.9z"/>
	<path class="st1" d="M340.2,226.7c3.3,0,5.5-2.2,5.5-5.5v-7.7c0-3.3-2.2-5.5-5.5-5.5c-3.3,0-5.5,2.2-5.5,5.5v7.7
		C334.7,223.9,337.4,226.7,340.2,226.7z"/>
	<path class="st1" d="M340.2,257.4c3.3,0,5.5-2.2,5.5-5.5v-7.7c0-3.3-2.2-5.5-5.5-5.5c-3.3,0-5.5,2.2-5.5,5.5v7.7
		C334.7,254.7,337.4,257.4,340.2,257.4z"/>
	<path class="st1" d="M340.2,287.6c3.3,0,5.5-2.2,5.5-5.5v-7.7c0-3.3-2.2-5.5-5.5-5.5c-3.3,0-5.5,2.2-5.5,5.5v7.7
		C334.7,284.9,337.4,287.6,340.2,287.6z"/>
	<path class="st1" d="M340.2,317.8c3.3,0,5.5-2.2,5.5-5.5v-7.7c0-3.3-2.2-5.5-5.5-5.5c-3.3,0-5.5,2.2-5.5,5.5v7.7
		C334.7,315.6,337.4,317.8,340.2,317.8z"/>
	<path class="st1" d="M340.2,348.6c3.3,0,5.5-2.2,5.5-5.5v-7.7c0-3.3-2.2-5.5-5.5-5.5c-3.3,0-5.5,2.2-5.5,5.5v7.7
		C334.7,346.4,337.4,348.6,340.2,348.6z"/>
	<path class="st1" d="M152.4,108.6c-3.3,0-5.5,2.2-5.5,5.5v6c0,3.3,2.2,5.5,5.5,5.5c3.3,0,5.5-2.2,5.5-5.5l0-6
		C157.9,111.3,155.7,108.6,152.4,108.6z"/>
	<path class="st1" d="M174.9,125.6c3.3,0,5.5-2.2,5.5-5.5v-6c0-3.3-2.2-5.5-5.5-5.5c-3.3,0-5.5,2.2-5.5,5.5v6
		C169.4,123.4,171.6,125.6,174.9,125.6z"/>
	<path class="st1" d="M196.9,125.6c3.3,0,5.5-2.2,5.5-5.5l0-6c0-3.3-2.2-5.5-5.5-5.5c-3.3,0-5.5,2.2-5.5,5.5v6
		C191.4,123.4,193.6,125.6,196.9,125.6z"/>
	<path class="st1" d="M152.4,132.8c-3.3,0-5.5,2.2-5.5,5.5v6c0,3.3,2.2,5.5,5.5,5.5c3.3,0,5.5-2.2,5.5-5.5v-6
		C157.9,135,155.7,132.8,152.4,132.8z"/>
	<path class="st1" d="M174.9,149.2c3.3,0,5.5-2.2,5.5-5.5v-6c0-3.3-2.2-5.5-5.5-5.5c-3.3,0-5.5,2.2-5.5,5.5v6
		C169.4,147,171.6,149.2,174.9,149.2z"/>
	<path class="st1" d="M196.9,149.2c3.3,0,5.5-2.2,5.5-5.5v-6c0-3.3-2.2-5.5-5.5-5.5c-3.3,0-5.5,2.2-5.5,5.5v6
		C191.4,147,193.6,149.2,196.9,149.2z"/>
	<path class="st1" d="M152.4,156.4c-3.3,0-5.5,2.2-5.5,5.5v6c0,3.3,2.2,5.5,5.5,5.5c3.3,0,5.5-2.2,5.5-5.5v-6
		C157.9,159.1,155.7,156.4,152.4,156.4L152.4,156.4z"/>
	<path class="st1" d="M180.4,167.9v-6c0-3.3-2.2-5.5-5.5-5.5c-3.3,0-5.5,2.2-5.5,5.5v6c0,3.3,2.2,5.5,5.5,5.5
		C178.2,173.4,180.4,170.6,180.4,167.9z"/>
	<path class="st1" d="M196.9,173.4c3.3,0,5.5-2.2,5.5-5.5v-6c0-3.3-2.2-5.5-5.5-5.5c-3.3,0-5.5,2.2-5.5,5.5v6
		C191.4,170.6,193.6,173.4,196.9,173.4z"/>
	<path class="st1" d="M196.9,199.8c3.3,0,5.5-2.2,5.5-5.5v-6c0-3.3-2.2-5.5-5.5-5.5c-3.3,0-5.5,2.2-5.5,5.5v6
		C191.4,197.6,193.6,199.8,196.9,199.8z"/>
	<path class="st1" d="M196.9,223.9c3.3,0,5.5-2.2,5.5-5.5v-6c0-3.3-2.2-5.5-5.5-5.5c-3.3,0-5.5,2.2-5.5,5.5v6
		C191.4,221.2,193.6,223.9,196.9,223.9z"/>
	<path class="st1" d="M196.9,247.5c3.3,0,5.5-2.2,5.5-5.5v-6c0-3.3-2.2-5.5-5.5-5.5c-3.3,0-5.5,2.2-5.5,5.5v6
		C191.4,245.3,193.6,247.5,196.9,247.5z"/>
	<path class="st1" d="M196.9,271.7c3.3,0,5.5-2.2,5.5-5.5v-6c0-3.3-2.2-5.5-5.5-5.5c-3.3,0-5.5,2.2-5.5,5.5v6
		C191.4,268.9,193.6,271.7,196.9,271.7z"/>
	<path class="st1" d="M196.9,295.3c3.3,0,5.5-2.2,5.5-5.5l0-5.5c0-3.3-2.2-5.5-5.5-5.5c-3.3,0-5.5,2.2-5.5,5.5l0,5.5
		C191.4,293.1,193.6,295.3,196.9,295.3z"/>
	<path class="st1" d="M196.9,319.5c3.3,0,5.5-2.2,5.5-5.5v-6c0-3.3-2.2-5.5-5.5-5.5c-3.3,0-5.5,2.2-5.5,5.5v6
		C191.4,316.7,193.6,319.5,196.9,319.5z"/>
	<path class="st1" d="M196.9,343.1c3.3,0,5.5-2.2,5.5-5.5v-6c0-3.3-2.2-5.5-5.5-5.5c-3.3,0-5.5,2.2-5.5,5.5v6
		C191.4,340.9,193.6,343.1,196.9,343.1z"/>
	<path class="st1" d="M234.8,73.5c9.3,0,17-7.7,17-17s-7.7-17-17-17c-9.3,0-17.6,7.7-17.6,17C217.2,65.8,224.9,73.5,234.8,73.5z
		 M234.8,50.4c3.3,0,6,2.7,6,6s-2.7,6-6,6c-3.3,0-6.6-2.7-6.6-6S230.9,50.4,234.8,50.4z"/>
	<path class="st1" d="M191.4,52c14.3,0,25.8-11.5,25.8-25.8c0-14.3-11.5-25.8-25.8-25.8c-14.3,0-25.8,11.5-25.8,25.8
		C165.6,40.5,177.1,52,191.4,52z M191.4,11.4c8.2,0,14.8,6.6,14.8,14.8c0,8.2-6.6,14.8-14.8,14.8c-8.2,0-14.8-6.6-14.8-14.8
		S183.1,11.4,191.4,11.4z"/>
	<path class="st1" d="M245.2,307.9h47.2c3.3,0,5.5-2.2,5.5-5.5c0-3.3-2.2-5.5-5.5-5.5h-47.2c-3.3,0-5.5,2.2-5.5,5.5
		C239.7,305.7,241.9,307.9,245.2,307.9z"/>
	<path class="st1" d="M245.2,283.2h47.2c3.3,0,5.5-2.2,5.5-5.5c0-3.3-2.2-5.5-5.5-5.5h-47.2c-3.3,0-5.5,2.2-5.5,5.5
		C239.7,281,241.9,283.2,245.2,283.2z"/>
	<path class="st1" d="M245.2,258.5h47.2c3.3,0,5.5-2.2,5.5-5.5c0-3.3-2.2-5.5-5.5-5.5h-47.2c-3.3,0-5.5,2.2-5.5,5.5
		C239.7,256.3,241.9,258.5,245.2,258.5z"/>
	<path class="st1" d="M245.2,233.8h47.2c3.3,0,5.5-2.2,5.5-5.5c0-3.3-2.2-5.5-5.5-5.5h-47.2c-3.3,0-5.5,2.2-5.5,5.5
		C239.7,231.6,241.9,233.8,245.2,233.8z"/>
	<path class="st1" d="M245.2,209.1h47.2c3.3,0,5.5-2.2,5.5-5.5c0-3.3-2.2-5.5-5.5-5.5h-47.2c-3.3,0-5.5,2.2-5.5,5.5
		C239.7,206.9,241.9,209.1,245.2,209.1z"/>
	<path class="st1" d="M245.2,184.4h47.2c3.3,0,5.5-2.2,5.5-5.5c0-3.3-2.2-5.5-5.5-5.5h-47.2c-3.3,0-5.5,2.2-5.5,5.5
		C239.7,182.2,241.9,184.4,245.2,184.4z"/>
</g>
<g>
	<path class="st0" d="M1372.2,388.5H1353v-23.7c13-2.3,22.8-13.7,22.8-27.3c0-11-6.5-20.5-15.8-25c6.4-4,10.6-11,10.6-19.1
		c0-12.5-10.1-22.6-22.6-22.6c-12.5,0-22.6,10.1-22.6,22.6c0,8,4.3,15.1,10.6,19.1c-9.3,4.5-15.8,14-15.8,25
		c0,13.6,9.9,25,22.8,27.3l0,23.7h-49.4V60.7c0-2.7-2.2-5-5-5h-24.4V33.3c0-2.1-1.4-4.1-3.4-4.7l-80.1-25.9c-1-0.3-2.1-0.3-3,0
		l-80.1,25.9c-2,0.7-3.4,2.6-3.4,4.7v22.4l-24.5,0c-2.7,0-5,2.2-5,5v327.8h-49.4v-23.7c13-2.3,22.8-13.7,22.8-27.3
		c0-11-6.5-20.5-15.8-25c6.4-4,10.6-11,10.6-19.1c0-12.5-10.1-22.6-22.6-22.6s-22.6,10.1-22.6,22.6c0,8.1,4.3,15.1,10.6,19.1
		c-9.3,4.5-15.8,14-15.8,25c0,13.6,9.9,25,22.8,27.3v23.7h-19.3c-2.7,0-5,2.2-5,5c0,2.7,2.2,5,5,5h386.2c2.7,0,5-2.2,5-5
		C1377.2,390.7,1375,388.5,1372.2,388.5L1372.2,388.5z M1348,280.7c7,0,12.7,5.7,12.7,12.7c0,7-5.7,12.7-12.7,12.7
		c-7,0-12.7-5.7-12.7-12.7C1335.3,286.4,1341,280.7,1348,280.7z M1330.1,337.5c0-9.8,8-17.9,17.9-17.9c9.8,0,17.9,8,17.9,17.9
		s-8,17.9-17.9,17.9C1338.2,355.3,1330.1,347.3,1330.1,337.5z M1010.3,280.7c7,0,12.7,5.7,12.7,12.7c0,7-5.7,12.7-12.7,12.7
		c-7,0-12.7-5.7-12.7-12.7C997.6,286.4,1003.3,280.7,1010.3,280.7z M992.4,337.5c0-9.8,8-17.9,17.9-17.9c9.8,0,17.9,8,17.9,17.9
		s-8,17.9-17.9,17.9C1000.4,355.3,992.4,347.3,992.4,337.5z M1283.7,295.6h-85.5V65.6h85.5V295.6z M1104,36.9l75.2-24.3l75.2,24.3
		v18.8l-61.2,0c-2.7,0-5,2.2-5,5v234.9H1170l0-234.9c0-2.7-2.2-5-5-5l-61,0L1104,36.9z M1160.1,65.6v229.9h-85.5V65.6L1160.1,65.6z
		 M1074.6,305.5h209.2v83h-26.5v-41.1c0-2.7-2.2-5-5-5H1204c-2.7,0-5,2.2-5,5v41.1h-39.9v-41.1c0-2.7-2.2-5-5-5H1106
		c-2.7,0-5,2.2-5,5l0,41.1h-26.5L1074.6,305.5z M1247.3,388.5H1209v-36.2h38.3V388.5z M1149.3,388.5H1111v-36.2h38.3V388.5z"/>
	<path class="st0" d="M1102,249.3h31.3c2.7,0,5-2.2,5-5v-30.6c0-2.7-2.2-5-5-5H1102c-2.7,0-5,2.2-5,5v30.6
		C1097.1,247.1,1099.3,249.3,1102,249.3z M1107,218.8h21.4v20.7H1107V218.8z"/>
	<path class="st0" d="M1102,193.2h31.3c2.7,0,5-2.2,5-5l0-30.6c0-2.7-2.2-5-5-5H1102c-2.7,0-5,2.2-5,5v30.6
		C1097.1,191,1099.3,193.2,1102,193.2z M1107,162.6h21.4v20.7H1107V162.6z"/>
	<path class="st0" d="M1102,137.1h31.3c2.7,0,5-2.2,5-5v-30.6c0-2.7-2.2-5-5-5H1102c-2.7,0-5,2.2-5,5v30.6
		C1097.1,134.8,1099.3,137.1,1102,137.1z M1107,106.5h21.4v20.7H1107V106.5z"/>
	<path class="st0" d="M1225.3,137.1h31.3c2.7,0,5-2.2,5-5v-30.6c0-2.7-2.2-5-5-5h-31.3c-2.7,0-5,2.2-5,5v30.6
		C1220.4,134.8,1222.6,137.1,1225.3,137.1z M1230.3,106.5h21.4v20.7h-21.4V106.5z"/>
	<path class="st0" d="M1257,208.9h-31.3c-2.7,0-5,2.2-5,5v30.6c0,2.7,2.2,5,5,5h31.3c2.7,0,5-2.2,5-5v-30.6
		C1261.9,211.1,1259.7,208.9,1257,208.9z M1252,239.4h-21.4v-20.7h21.4V239.4z"/>
	<path class="st0" d="M1257,152.7h-31.3c-2.7,0-5,2.2-5,5v30.6c0,2.7,2.2,5,5,5h31.3c2.7,0,5-2.2,5-5l0-30.6
		C1261.9,155,1259.7,152.7,1257,152.7L1257,152.7z M1252,183.3h-21.4v-20.7h21.4V183.3z"/>
</g>
<path class="st0" d="M1856.8,387.1h-10.7V237.5c0-2.7-2.2-4.9-4.9-4.9h-15.8l0-155.2c0-2.7-2.2-4.9-4.9-4.9h-101V55.7
	c0-1.3-0.5-2.6-1.5-3.5l-50.6-49.5c-1.9-1.9-5-1.9-6.9,0l-50.6,49.5c-1,0.9-1.5,2.2-1.5,3.5v331.4h-19.5l0-380.8
	c0-2.7-2.2-4.9-4.9-4.9h-97.1c-2.7,0-4.9,2.2-4.9,4.9v380.8H1471c-2.7,0-4.9,2.2-4.9,4.9c0,2.7,2.2,4.9,4.9,4.9h385.8
	c2.7,0,4.9-2.2,4.9-4.9C1861.7,389.3,1859.5,387.1,1856.8,387.1L1856.8,387.1z M1836.2,387.1H1749V242.4h87.2V387.1z M1815.5,82.3
	v150.2h-71.4c-2.7,0-4.9,2.2-4.9,4.9l0,149.6h-19.7V82.3L1815.5,82.3z M1709.5,61.8v28.9h-91.4V61.8H1709.5z M1709.5,129.5h-91.4
	l0-28.9h91.4L1709.5,129.5z M1618.2,139.4h91.4v28.9h-91.4V139.4z M1618.2,178.2h91.4l0,28.9h-91.4L1618.2,178.2z M1663.9,13.1
	l39.6,38.7h-79.3L1663.9,13.1z M1618.2,217.1h91.4l0,170h-91.4L1618.2,217.1z M1491.8,11.2h87.2v375.9h-87.2V11.2z"/>
<g>
	<path class="st0" d="M1769.7,284.3c2.7,0,4.9-2.2,4.9-4.9v-12.8c0-2.7-2.2-4.9-4.9-4.9c-2.7,0-4.9,2.2-4.9,4.9v12.8
		C1764.8,282.1,1767,284.3,1769.7,284.3z"/>
	<path class="st0" d="M1792.6,284.3c2.7,0,4.9-2.2,4.9-4.9v-12.8c0-2.7-2.2-4.9-4.9-4.9c-2.7,0-4.9,2.2-4.9,4.9v12.8
		C1787.7,282.1,1789.9,284.3,1792.6,284.3z"/>
	<path class="st0" d="M1815.5,284.3c2.7,0,4.9-2.2,4.9-4.9v-12.8c0-2.7-2.2-4.9-4.9-4.9c-2.7,0-4.9,2.2-4.9,4.9v12.8
		C1810.5,282.1,1812.8,284.3,1815.5,284.3z"/>
	<path class="st0" d="M1769.7,321.4c2.7,0,4.9-2.2,4.9-4.9v-12.8c0-2.7-2.2-4.9-4.9-4.9c-2.7,0-4.9,2.2-4.9,4.9v12.8
		C1764.8,319.2,1767,321.4,1769.7,321.4z"/>
	<path class="st0" d="M1792.6,321.4c2.7,0,4.9-2.2,4.9-4.9v-12.8c0-2.7-2.2-4.9-4.9-4.9c-2.7,0-4.9,2.2-4.9,4.9v12.8
		C1787.7,319.2,1789.9,321.4,1792.6,321.4z"/>
	<path class="st0" d="M1815.5,321.4c2.7,0,4.9-2.2,4.9-4.9v-12.8c0-2.7-2.2-4.9-4.9-4.9c-2.7,0-4.9,2.2-4.9,4.9v12.8
		C1810.5,319.2,1812.8,321.4,1815.5,321.4z"/>
	<path class="st0" d="M1769.7,358.5c2.7,0,4.9-2.2,4.9-4.9v-12.8c0-2.7-2.2-4.9-4.9-4.9c-2.7,0-4.9,2.2-4.9,4.9v12.8
		C1764.8,356.3,1767,358.5,1769.7,358.5z"/>
	<path class="st0" d="M1792.6,358.5c2.7,0,4.9-2.2,4.9-4.9v-12.8c0-2.7-2.2-4.9-4.9-4.9c-2.7,0-4.9,2.2-4.9,4.9v12.8
		C1787.7,356.3,1789.9,358.5,1792.6,358.5z"/>
	<path class="st0" d="M1815.5,358.5c2.7,0,4.9-2.2,4.9-4.9v-12.8c0-2.7-2.2-4.9-4.9-4.9c-2.7,0-4.9,2.2-4.9,4.9v12.8
		C1810.5,356.3,1812.8,358.5,1815.5,358.5z"/>
	<path class="st0" d="M1745.3,131.5c2.7,0,4.9-2.2,4.9-4.9v-12.8c0-2.7-2.2-4.9-4.9-4.9c-2.7,0-4.9,2.2-4.9,4.9v12.8
		C1740.4,129.2,1742.6,131.5,1745.3,131.5z"/>
	<path class="st0" d="M1768.2,131.5c2.7,0,4.9-2.2,4.9-4.9v-12.8c0-2.7-2.2-4.9-4.9-4.9c-2.7,0-4.9,2.2-4.9,4.9v12.8
		C1763.3,129.2,1765.5,131.5,1768.2,131.5z"/>
	<path class="st0" d="M1791.1,131.5c2.7,0,4.9-2.2,4.9-4.9v-12.8c0-2.7-2.2-4.9-4.9-4.9c-2.7,0-4.9,2.2-4.9,4.9v12.8
		C1786.1,129.2,1788.4,131.5,1791.1,131.5z"/>
	<path class="st0" d="M1745.3,168.5c2.7,0,4.9-2.2,4.9-4.9v-12.8c0-2.7-2.2-4.9-4.9-4.9c-2.7,0-4.9,2.2-4.9,4.9v12.8
		C1740.4,166.3,1742.6,168.5,1745.3,168.5z"/>
	<path class="st0" d="M1768.2,168.5c2.7,0,4.9-2.2,4.9-4.9v-12.8c0-2.7-2.2-4.9-4.9-4.9c-2.7,0-4.9,2.2-4.9,4.9v12.8
		C1763.3,166.3,1765.5,168.5,1768.2,168.5z"/>
	<path class="st0" d="M1791.1,168.5c2.7,0,4.9-2.2,4.9-4.9v-12.8c0-2.7-2.2-4.9-4.9-4.9c-2.7,0-4.9,2.2-4.9,4.9v12.8
		C1786.1,166.3,1788.4,168.5,1791.1,168.5z"/>
	<path class="st0" d="M1745.3,205.6c2.7,0,4.9-2.2,4.9-4.9v-12.8c0-2.7-2.2-4.9-4.9-4.9c-2.7,0-4.9,2.2-4.9,4.9v12.8
		C1740.4,203.4,1742.6,205.6,1745.3,205.6z"/>
	<path class="st0" d="M1768.2,205.6c2.7,0,4.9-2.2,4.9-4.9v-12.8c0-2.7-2.2-4.9-4.9-4.9c-2.7,0-4.9,2.2-4.9,4.9v12.8
		C1763.3,203.4,1765.5,205.6,1768.2,205.6z"/>
	<path class="st0" d="M1791.1,205.6c2.7,0,4.9-2.2,4.9-4.9v-12.8c0-2.7-2.2-4.9-4.9-4.9c-2.7,0-4.9,2.2-4.9,4.9v12.8
		C1786.1,203.4,1788.4,205.6,1791.1,205.6z"/>
	<path class="st0" d="M1679,262.1h-30.3c-2.7,0-4.9,2.2-4.9,4.9v30.3c0,2.7,2.2,4.9,4.9,4.9h30.3c2.7,0,4.9-2.2,4.9-4.9V267
		C1684,264.3,1681.8,262.1,1679,262.1z M1674.1,292.4h-20.4v-20.4h20.4V292.4z"/>
	<path class="st0" d="M1679,319.5h-30.3c-2.7,0-4.9,2.2-4.9,4.9v30.3c0,2.7,2.2,4.9,4.9,4.9h30.3c2.7,0,4.9-2.2,4.9-4.9v-30.3
		C1684,321.7,1681.8,319.5,1679,319.5z M1674.1,349.8h-20.4v-20.4h20.4V349.8z"/>
	<path class="st0" d="M1550.5,262.1h-30.3c-2.7,0-4.9,2.2-4.9,4.9v30.3c0,2.7,2.2,4.9,4.9,4.9h30.3c2.7,0,4.9-2.2,4.9-4.9V267
		C1555.4,264.3,1553.2,262.1,1550.5,262.1z M1545.6,292.4h-20.4v-20.4h20.4V292.4z"/>
	<path class="st0" d="M1550.5,206.3h-30.3c-2.7,0-4.9,2.2-4.9,4.9v30.3c0,2.7,2.2,4.9,4.9,4.9h30.3c2.7,0,4.9-2.2,4.9-4.9v-30.3
		C1555.4,208.5,1553.2,206.3,1550.5,206.3z M1545.6,236.7h-20.4v-20.4h20.4V236.7z"/>
	<path class="st0" d="M1550.5,150.6h-30.3c-2.7,0-4.9,2.2-4.9,4.9v30.3c0,2.7,2.2,4.9,4.9,4.9h30.3c2.7,0,4.9-2.2,4.9-4.9v-30.3
		C1555.4,152.8,1553.2,150.6,1550.5,150.6z M1545.6,180.9h-20.4v-20.4h20.4V180.9z"/>
	<path class="st0" d="M1550.5,94.9h-30.3c-2.7,0-4.9,2.2-4.9,4.9v30.3c0,2.7,2.2,4.9,4.9,4.9h30.3c2.7,0,4.9-2.2,4.9-4.9V99.8
		C1555.4,97.1,1553.2,94.9,1550.5,94.9z M1545.6,125.2h-20.4v-20.4h20.4V125.2z"/>
	<path class="st0" d="M1550.5,39.2h-30.3c-2.7,0-4.9,2.2-4.9,4.9v30.3c0,2.7,2.2,4.9,4.9,4.9h30.3c2.7,0,4.9-2.2,4.9-4.9V44.1
		C1555.4,41.4,1553.2,39.2,1550.5,39.2z M1545.6,69.5h-20.4V49.1h20.4V69.5z"/>
	<path class="st0" d="M1550.5,319.5h-30.3c-2.7,0-4.9,2.2-4.9,4.9v30.3c0,2.7,2.2,4.9,4.9,4.9h30.3c2.7,0,4.9-2.2,4.9-4.9v-30.3
		C1555.4,321.7,1553.2,319.5,1550.5,319.5z M1545.6,349.8h-20.4v-20.4h20.4V349.8z"/>
</g>
</svg>
