<svg id="Layer_1" data-name="Layer 1" xmlns="http://www.w3.org/2000/svg" viewBox="0 0 434.76 398.37"><path d="M427.66,385.67h-14V9.91a6.91,6.91,0,0,0-2.24-4.48,5.45,5.45,0,0,0-5-.56l-108.08,42a5.38,5.38,0,0,0-3.35,5V385.1H283.18l-22.39-62.71,3.91-90.16,15.68-86.81a4.91,4.91,0,0,0-2.8-5.6l-126-76.71a5.09,5.09,0,0,0-5.6,0,5.87,5.87,0,0,0-2.8,5V385.67H129.74V142.07a5.28,5.28,0,0,0-5-5.6h-9v-84a5.3,5.3,0,0,0-5-5.61H80.46V7.1a5.6,5.6,0,0,0-11.2,0h0V46.86H39.58a5.28,5.28,0,0,0-5.58,5q0,.31,0,.63v84H26.7a5.29,5.29,0,0,0-5.61,4.95c0,.22,0,.43,0,.65v243.6H7.1a5.6,5.6,0,1,0,0,11.2H427.66a5.28,5.28,0,0,0,5.6-5c0-.21,0-.43,0-.64A5.62,5.62,0,0,0,427.66,385.67ZM45.19,58.07h59.92v78.4H45.19Zm73.35,327.6H32.31v-238h86.23Zm77.29,0V357.11a11.2,11.2,0,1,1,22.39-.67c0,.22,0,.45,0,.67v28.56Zm35.27-.56V356.55a22.4,22.4,0,0,0-44.79-.95c0,.32,0,.63,0,.95v28.56h-30.8V78.91l112.55,68.2-14.55,83.44v.56L249,323a3.42,3.42,0,0,0,.56,2.24l21.84,59.92Zm170.8.56H305.58V140.39l96.32-38.08ZM402.46,90l-96.32,38.07V55.83l96.32-38.08Z" style="fill:#0d46a0;stroke:#0d46a0;stroke-miterlimit:10;stroke-width:3px"/><path d="M228.3,177.91a5.28,5.28,0,0,0-5.6,5c0,.21,0,.43,0,.64V202a5.6,5.6,0,0,0,11.2,0h0V183.51a5.28,5.28,0,0,0-5-5.6Z" style="fill:#0d46a0;stroke:#0d46a0;stroke-miterlimit:10;stroke-width:3px"/><path d="M201.42,177.91a5.28,5.28,0,0,0-5.6,5c0,.21,0,.43,0,.64V202a5.62,5.62,0,0,0,5.6,5.6,5.28,5.28,0,0,0,5.58-5c0-.21,0-.41,0-.62V183.51a5.29,5.29,0,0,0-5-5.6Z" style="fill:#0d46a0;stroke:#0d46a0;stroke-miterlimit:10;stroke-width:3px"/><path d="M175.1,177.91h0a5.28,5.28,0,0,0-5.6,5c0,.21,0,.43,0,.64V202a5.6,5.6,0,0,0,11.2,0h0V183.51A5.62,5.62,0,0,0,175.1,177.91Z" style="fill:#0d46a0;stroke:#0d46a0;stroke-miterlimit:10;stroke-width:3px"/><path d="M228.3,226.07a5.28,5.28,0,0,0-5.6,5c0,.21,0,.43,0,.64v18.48a5.6,5.6,0,0,0,11.2,0h0V231.67a5.28,5.28,0,0,0-5-5.6Z" style="fill:#0d46a0;stroke:#0d46a0;stroke-miterlimit:10;stroke-width:3px"/><path d="M201.42,226.07a5.28,5.28,0,0,0-5.6,5c0,.21,0,.43,0,.64v18.48a5.62,5.62,0,0,0,5.6,5.6,5.28,5.28,0,0,0,5.6-5c0-.21,0-.43,0-.64V231.67a5.28,5.28,0,0,0-5-5.6Z" style="fill:#0d46a0;stroke:#0d46a0;stroke-miterlimit:10;stroke-width:3px"/><path d="M175.1,226.07a5.28,5.28,0,0,0-5.6,5c0,.21,0,.43,0,.64v18.48a5.6,5.6,0,0,0,11.2,0V231.67A6,6,0,0,0,175.1,226.07Z" style="fill:#0d46a0;stroke:#0d46a0;stroke-miterlimit:10;stroke-width:3px"/><path d="M228.3,274.79a5.28,5.28,0,0,0-5.6,5c0,.21,0,.43,0,.64v18.48a5.62,5.62,0,0,0,5.6,5.6,5.28,5.28,0,0,0,5.6-5c0-.21,0-.43,0-.64V280.39a5.28,5.28,0,0,0-5-5.6C228.73,274.78,228.51,274.78,228.3,274.79Z" style="fill:#0d46a0;stroke:#0d46a0;stroke-miterlimit:10;stroke-width:3px"/><path d="M201.42,274.79a5.28,5.28,0,0,0-5.6,5c0,.21,0,.43,0,.64v18.48a6,6,0,0,0,5.6,5.6,5.28,5.28,0,0,0,5.6-5c0-.21,0-.43,0-.64V280.39a5.28,5.28,0,0,0-5-5.6C201.85,274.78,201.63,274.78,201.42,274.79Z" style="fill:#0d46a0;stroke:#0d46a0;stroke-miterlimit:10;stroke-width:3px"/><path d="M175.1,274.23a5.28,5.28,0,0,0-5.6,5c0,.21,0,.43,0,.64v18.48a5.6,5.6,0,0,0,11.2,0h0V279.83A6,6,0,0,0,175.1,274.23Z" style="fill:#0d46a0;stroke:#0d46a0;stroke-miterlimit:10;stroke-width:3px"/><path d="M98.94,291a5.28,5.28,0,0,0,5.6-5c0-.21,0-.43,0-.64V241.75a5.62,5.62,0,0,0-5.6-5.6,5.28,5.28,0,0,0-5.6,5c0,.21,0,.43,0,.64v43.68a5.29,5.29,0,0,0,5,5.57Z" style="fill:#0d46a0;stroke:#0d46a0;stroke-miterlimit:10;stroke-width:3px"/><path d="M75.42,291a5.28,5.28,0,0,0,5.6-5c0-.21,0-.43,0-.64V241.75a5.6,5.6,0,0,0-11.2,0h0v43.68a5.29,5.29,0,0,0,5,5.57Z" style="fill:#0d46a0;stroke:#0d46a0;stroke-miterlimit:10;stroke-width:3px"/><path d="M52.46,291a5.28,5.28,0,0,0,5.6-5c0-.21,0-.43,0-.64V241.75a5.62,5.62,0,0,0-5.6-5.6,5.28,5.28,0,0,0-5.6,5c0,.21,0,.43,0,.64v43.68a5.29,5.29,0,0,0,5,5.57Z" style="fill:#0d46a0;stroke:#0d46a0;stroke-miterlimit:10;stroke-width:3px"/><path d="M98.94,221a5.28,5.28,0,0,0,5.6-5c0-.21,0-.43,0-.64V171.75a5.62,5.62,0,0,0-5.6-5.6,5.28,5.28,0,0,0-5.6,5c0,.21,0,.43,0,.64v43.68a5.29,5.29,0,0,0,5,5.57Z" style="fill:#0d46a0;stroke:#0d46a0;stroke-miterlimit:10;stroke-width:3px"/><path d="M75.42,221a5.28,5.28,0,0,0,5.6-5c0-.21,0-.43,0-.64V171.75a5.6,5.6,0,0,0-11.2,0h0v43.68a5.29,5.29,0,0,0,5,5.57Z" style="fill:#0d46a0;stroke:#0d46a0;stroke-miterlimit:10;stroke-width:3px"/><path d="M52.46,221a5.28,5.28,0,0,0,5.6-5c0-.21,0-.43,0-.64V171.75a5.62,5.62,0,0,0-5.6-5.6,5.28,5.28,0,0,0-5.6,5c0,.21,0,.43,0,.64v43.68a5.29,5.29,0,0,0,5,5.57Z" style="fill:#0d46a0;stroke:#0d46a0;stroke-miterlimit:10;stroke-width:3px"/><path d="M98.94,359.35a5.28,5.28,0,0,0,5.6-5c0-.21,0-.43,0-.64V310.07a6,6,0,0,0-5.6-5.6,5.28,5.28,0,0,0-5.6,5c0,.21,0,.43,0,.64v43.68a5.28,5.28,0,0,0,5,5.6Z" style="fill:#0d46a0;stroke:#0d46a0;stroke-miterlimit:10;stroke-width:3px"/><path d="M75.42,359.35a5.28,5.28,0,0,0,5.6-5c0-.21,0-.43,0-.64V310.07a5.62,5.62,0,0,0-5.6-5.6,5.28,5.28,0,0,0-5.6,5c0,.21,0,.43,0,.64v43.68a5.28,5.28,0,0,0,5,5.6Z" style="fill:#0d46a0;stroke:#0d46a0;stroke-miterlimit:10;stroke-width:3px"/><path d="M52.46,359.35a5.28,5.28,0,0,0,5.6-5c0-.21,0-.43,0-.64V310.07a6,6,0,0,0-5.6-5.6,5.28,5.28,0,0,0-5.6,5c0,.21,0,.43,0,.64v43.68a5.28,5.28,0,0,0,5,5.6Z" style="fill:#0d46a0;stroke:#0d46a0;stroke-miterlimit:10;stroke-width:3px"/><path d="M377.26,291a5.28,5.28,0,0,0,5.6-5c0-.21,0-.43,0-.64V241.75a5.62,5.62,0,0,0-5.6-5.6,5.28,5.28,0,0,0-5.6,5c0,.21,0,.43,0,.64v43.68a5.29,5.29,0,0,0,5,5.57Z" style="fill:#0d46a0;stroke:#0d46a0;stroke-miterlimit:10;stroke-width:3px"/><path d="M353.74,291a5.28,5.28,0,0,0,5.6-5c0-.21,0-.43,0-.64V241.75a5.6,5.6,0,1,0-11.2,0v43.68a5.29,5.29,0,0,0,5,5.57Z" style="fill:#0d46a0;stroke:#0d46a0;stroke-miterlimit:10;stroke-width:3px"/><path d="M330.78,291a5.28,5.28,0,0,0,5.6-5c0-.21,0-.43,0-.64V241.75a5.6,5.6,0,0,0-11.2,0v43.68a5.29,5.29,0,0,0,5,5.57Z" style="fill:#0d46a0;stroke:#0d46a0;stroke-miterlimit:10;stroke-width:3px"/><path d="M377.26,221a5.28,5.28,0,0,0,5.6-5c0-.21,0-.43,0-.64V171.75a5.62,5.62,0,0,0-5.6-5.6,5.28,5.28,0,0,0-5.6,5c0,.21,0,.43,0,.64v43.68a5.29,5.29,0,0,0,5,5.57Z" style="fill:#0d46a0;stroke:#0d46a0;stroke-miterlimit:10;stroke-width:3px"/><path d="M353.74,221a5.28,5.28,0,0,0,5.6-5c0-.21,0-.43,0-.64V171.75a5.6,5.6,0,1,0-11.2,0v43.68a5.29,5.29,0,0,0,5,5.57Z" style="fill:#0d46a0;stroke:#0d46a0;stroke-miterlimit:10;stroke-width:3px"/><path d="M330.78,221a5.28,5.28,0,0,0,5.6-5c0-.21,0-.43,0-.64V171.75a5.6,5.6,0,0,0-11.2,0v43.68a5.29,5.29,0,0,0,5,5.57Z" style="fill:#0d46a0;stroke:#0d46a0;stroke-miterlimit:10;stroke-width:3px"/><path d="M377.26,359.35a5.28,5.28,0,0,0,5.6-5c0-.21,0-.43,0-.64V310.07a6,6,0,0,0-5.6-5.6,5.28,5.28,0,0,0-5.6,5c0,.21,0,.43,0,.64v43.68a5.28,5.28,0,0,0,5,5.6Z" style="fill:#0d46a0;stroke:#0d46a0;stroke-miterlimit:10;stroke-width:3px"/><path d="M353.74,359.35a5.28,5.28,0,0,0,5.6-5c0-.21,0-.43,0-.64V310.07a5.62,5.62,0,0,0-5.6-5.6,5.28,5.28,0,0,0-5.6,5c0,.21,0,.43,0,.64v43.68a5.28,5.28,0,0,0,5,5.6Z" style="fill:#0d46a0;stroke:#0d46a0;stroke-miterlimit:10;stroke-width:3px"/><path d="M330.78,359.35a5.28,5.28,0,0,0,5.6-5c0-.21,0-.43,0-.64V310.07a5.62,5.62,0,0,0-5.6-5.6,5.28,5.28,0,0,0-5.6,5c0,.21,0,.43,0,.64v43.68a5.28,5.28,0,0,0,5,5.6Z" style="fill:#0d46a0;stroke:#0d46a0;stroke-miterlimit:10;stroke-width:3px"/></svg>