<svg id="Layer_1" data-name="Layer 1" xmlns="http://www.w3.org/2000/svg" viewBox="0 0 434.76 398.37"><path d="M411.12,388.46H391.85v-23.7a27.72,27.72,0,0,0,7-52.31,22.59,22.59,0,1,0-23.95,0,27.73,27.73,0,0,0,7,52.31v23.7H332.52V60.69a5,5,0,0,0-4.95-4.95H303.2V33.33a4.94,4.94,0,0,0-3.43-4.71L219.63,2.73a5.08,5.08,0,0,0-3,0L136.45,28.62A4.94,4.94,0,0,0,133,33.33V55.74H108.5a4.94,4.94,0,0,0-5,5V388.47H54.12V364.76a27.72,27.72,0,0,0,7-52.31,22.6,22.6,0,1,0-24,0,27.73,27.73,0,0,0,7,52.31v23.71H25a4.95,4.95,0,1,0,0,9.9H411.12a5,5,0,1,0,0-9.9ZM386.9,280.67a12.7,12.7,0,1,1-12.69,12.7A12.71,12.71,0,0,1,386.9,280.67ZM369,337.46a17.86,17.86,0,1,1,17.86,17.86A17.88,17.88,0,0,1,369,337.46ZM49.16,280.67a12.7,12.7,0,1,1-12.69,12.7A12.71,12.71,0,0,1,49.16,280.67ZM31.3,337.46a17.87,17.87,0,1,1,17.86,17.86A17.89,17.89,0,0,1,31.3,337.46Zm291.32-41.9H237.08V65.64h85.54ZM142.92,36.93l75.19-24.28,75.2,24.28V55.74H232.13a5,5,0,0,0-4.95,4.95V295.56h-18.3V60.69a5,5,0,0,0-5-4.95h-61ZM199,65.64V295.56H113.45V65.64ZM113.45,305.46H322.62v83H296.1v-41.1a4.94,4.94,0,0,0-5-4.95H242.93a4.94,4.94,0,0,0-5,4.95v41.1H198.09v-41.1a4.94,4.94,0,0,0-5-4.95H144.92a4.94,4.94,0,0,0-4.95,4.95v41.1H113.44Zm172.75,83H247.88V352.31H286.2Zm-98,0H149.87V352.31h38.32Z" style="fill:#0d46a0;stroke:#0d46a0;stroke-miterlimit:10;stroke-width:3px"/><path d="M140.93,249.32h31.3a5,5,0,0,0,5-4.95V213.82a5,5,0,0,0-5-4.95h-31.3a4.94,4.94,0,0,0-5,4.95v30.55A4.94,4.94,0,0,0,140.93,249.32Zm4.95-30.55h21.4v20.65h-21.4Z" style="fill:#0d46a0;stroke:#0d46a0;stroke-miterlimit:10;stroke-width:3px"/><path d="M140.93,193.19h31.3a5,5,0,0,0,5-4.95V157.69a5,5,0,0,0-5-5h-31.3a5,5,0,0,0-5,5v30.55A5,5,0,0,0,140.93,193.19Zm4.95-30.55h21.4v20.65h-21.4Z" style="fill:#0d46a0;stroke:#0d46a0;stroke-miterlimit:10;stroke-width:3px"/><path d="M140.93,137.05h31.3a5,5,0,0,0,5-5V101.55a5,5,0,0,0-5-5h-31.3a4.94,4.94,0,0,0-5,5V132.1A4.94,4.94,0,0,0,140.93,137.05Zm4.95-30.55h21.4v20.65h-21.4Z" style="fill:#0d46a0;stroke:#0d46a0;stroke-miterlimit:10;stroke-width:3px"/><path d="M264.19,137.05H295.5a5,5,0,0,0,4.95-5V101.55a4.94,4.94,0,0,0-4.95-5H264.19a4.94,4.94,0,0,0-4.95,5V132.1A4.94,4.94,0,0,0,264.19,137.05Zm4.95-30.55h21.41v20.65H269.14Z" style="fill:#0d46a0;stroke:#0d46a0;stroke-miterlimit:10;stroke-width:3px"/><path d="M295.87,208.87H264.56a5,5,0,0,0-4.95,4.95v30.55a5,5,0,0,0,4.95,5h31.31a5,5,0,0,0,4.95-5V213.82A5,5,0,0,0,295.87,208.87Zm-5,30.55h-21.4V218.77h21.4Z" style="fill:#0d46a0;stroke:#0d46a0;stroke-miterlimit:10;stroke-width:3px"/><path d="M295.87,152.74H264.56a5,5,0,0,0-4.95,4.95v30.55a4.94,4.94,0,0,0,4.95,4.95h31.31a5,5,0,0,0,4.95-4.95V157.69a5,5,0,0,0-4.95-4.95Zm-5,30.55h-21.4V162.64h21.4Z" style="fill:#0d46a0;stroke:#0d46a0;stroke-miterlimit:10;stroke-width:3px"/></svg>